<svg width="277" height="58" viewBox="0 0 277 58" fill="none" xmlns="http://www.w3.org/2000/svg">
<path d="M27.9131 2.41602L44.583 14.9844L45.3789 15.584V26.7246L58.2236 36.6328L59.002 37.2334V57.9365H40.7715V33.4775H44.7715V53.9365H55.002V39.2002L36.0293 24.5654V58.001H32.0283V16.4287L35.251 18.9131L41.3789 23.6396V17.5771L28.71 8.02441V29.1143L27.916 29.7148L13.4629 40.6523V53.9355H18.8145V38.0098H22.8145V57.9355H9.46289V38.6631L10.2559 38.0635L18.377 31.917V23.3926L4 34.1289V57.9609H0V32.125L0.803711 31.5244L19.1807 17.8008L22.377 15.4131V28.8896L24.71 27.124V0L27.9131 2.41602ZM29.1162 57.9619H25.1162V34.4727H29.1162V57.9619Z" fill="black"/>
<path d="M80.494 2.39948C82.8113 2.39948 84.7913 2.79548 86.434 3.58748C88.0766 4.35015 89.338 5.46482 90.218 6.93148C91.1273 8.39815 91.582 10.1728 91.582 12.2555C91.582 13.5168 91.3913 14.7635 91.01 15.9955C90.6286 17.1981 90.0126 18.2981 89.162 19.2955C88.3406 20.2635 87.2553 21.0408 85.906 21.6275C84.5566 22.2141 82.914 22.5075 80.978 22.5075H76.27V34.2115H72.002V2.39948H80.494ZM80.934 18.4155C82.1953 18.4155 83.2366 18.2101 84.058 17.7995C84.8793 17.3888 85.5246 16.8755 85.994 16.2595C86.4633 15.6142 86.8006 14.9395 87.006 14.2355C87.2113 13.5315 87.314 12.9008 87.314 12.3435C87.314 11.6981 87.2113 11.0381 87.006 10.3635C86.8006 9.65948 86.4486 9.02882 85.95 8.47148C85.4806 7.88482 84.85 7.41548 84.058 7.06348C83.2953 6.68215 82.342 6.49148 81.198 6.49148H76.27V18.4155H80.934Z" fill="black"/>
<path d="M91.9511 34.2115L105.855 1.07948H106.119L119.979 34.2115H115.095L104.711 7.76748L107.747 5.78748L96.1311 34.2115H91.9511ZM100.091 22.1555H111.927L113.335 25.8515H98.8591L100.091 22.1555Z" fill="black"/>
<path d="M130.283 15.2035L130.151 16.7875L130.723 15.9955L143.747 2.39948H149.247L136.091 16.0395L149.995 34.2115H144.583L132.967 18.7675L130.283 21.3635V34.2115H125.971V2.39948H130.283V15.2035Z" fill="black"/>
<path d="M155.834 2.39948H160.102V34.2115H155.834V2.39948Z" fill="black"/>
<path d="M185.696 8.07548C184.611 7.51815 183.423 7.03415 182.132 6.62348C180.842 6.21282 179.58 6.00748 178.348 6.00748C176.647 6.00748 175.283 6.40348 174.256 7.19548C173.259 7.98748 172.76 9.04348 172.76 10.3635C172.76 11.3608 173.083 12.2115 173.728 12.9155C174.374 13.5901 175.224 14.1768 176.28 14.6755C177.336 15.1742 178.436 15.6435 179.58 16.0835C180.578 16.4648 181.56 16.8902 182.528 17.3595C183.496 17.8288 184.362 18.4155 185.124 19.1195C185.916 19.8235 186.532 20.6888 186.972 21.7155C187.442 22.7421 187.676 24.0182 187.676 25.5435C187.676 27.2155 187.251 28.7408 186.4 30.1195C185.579 31.4981 184.391 32.5835 182.836 33.3755C181.282 34.1675 179.434 34.5635 177.292 34.5635C175.884 34.5635 174.535 34.4021 173.244 34.0795C171.983 33.7568 170.81 33.3461 169.724 32.8475C168.639 32.3195 167.671 31.7768 166.82 31.2195L168.712 27.8755C169.416 28.3742 170.223 28.8582 171.132 29.3275C172.042 29.7675 172.995 30.1342 173.992 30.4275C174.99 30.6915 175.958 30.8235 176.896 30.8235C177.894 30.8235 178.876 30.6475 179.844 30.2955C180.842 29.9142 181.663 29.3421 182.308 28.5795C182.954 27.8168 183.276 26.8048 183.276 25.5435C183.276 24.4582 182.983 23.5635 182.396 22.8595C181.839 22.1262 181.091 21.5102 180.152 21.0115C179.214 20.4835 178.216 20.0142 177.16 19.6035C176.163 19.2221 175.151 18.8115 174.124 18.3715C173.098 17.9021 172.144 17.3448 171.264 16.6995C170.384 16.0248 169.68 15.2035 169.152 14.2355C168.624 13.2675 168.36 12.0941 168.36 10.7155C168.36 9.04348 168.756 7.59148 169.548 6.35948C170.37 5.09815 171.484 4.11548 172.892 3.41148C174.3 2.67815 175.914 2.28215 177.732 2.22348C179.786 2.22348 181.59 2.47282 183.144 2.97148C184.728 3.47015 186.122 4.08615 187.324 4.81948L185.696 8.07548Z" fill="black"/>
<path d="M192.303 2.39948H213.423V6.49148H204.887V34.2115H200.619V6.49148H192.303V2.39948Z" fill="black"/>
<path d="M214.541 34.2115L228.445 1.07948H228.709L242.569 34.2115H237.685L227.301 7.76748L230.337 5.78748L218.721 34.2115H214.541ZM222.681 22.1555H234.517L235.925 25.8515H221.449L222.681 22.1555Z" fill="black"/>
<path d="M276.105 35.2235L251.509 10.2755L252.741 10.5835L252.829 34.2115H248.561V1.43148H248.781L273.113 26.4675L272.101 26.2475L272.013 2.39948H276.237V35.2235H276.105Z" fill="black"/>
<path d="M75.476 43.7635C76.424 43.7635 77.234 43.9255 77.906 44.2495C78.578 44.5615 79.094 45.0175 79.454 45.6175C79.826 46.2175 80.012 46.9435 80.012 47.7955C80.012 48.3115 79.934 48.8215 79.778 49.3255C79.622 49.8175 79.37 50.2675 79.022 50.6755C78.686 51.0715 78.242 51.3895 77.69 51.6295C77.138 51.8695 76.466 51.9895 75.674 51.9895H73.748V56.7775H72.002V43.7635H75.476ZM75.656 50.3155C76.172 50.3155 76.598 50.2315 76.934 50.0635C77.27 49.8955 77.534 49.6855 77.726 49.4335C77.918 49.1695 78.056 48.8935 78.14 48.6055C78.224 48.3175 78.266 48.0595 78.266 47.8315C78.266 47.5675 78.224 47.2975 78.14 47.0215C78.056 46.7335 77.912 46.4755 77.708 46.2475C77.516 46.0075 77.258 45.8155 76.934 45.6715C76.622 45.5155 76.232 45.4375 75.764 45.4375H73.748V50.3155H75.656Z" fill="black"/>
<path d="M88.683 43.7635C89.343 43.7635 89.949 43.8535 90.501 44.0335C91.065 44.2015 91.551 44.4595 91.959 44.8075C92.379 45.1435 92.703 45.5635 92.931 46.0675C93.171 46.5595 93.291 47.1355 93.291 47.7955C93.291 48.3115 93.213 48.8155 93.057 49.3075C92.913 49.7995 92.667 50.2495 92.319 50.6575C91.971 51.0535 91.515 51.3775 90.951 51.6295C90.399 51.8695 89.715 51.9895 88.899 51.9895H86.973V56.7775H85.227V43.7635H88.683ZM88.863 50.3155C89.379 50.3155 89.805 50.2375 90.141 50.0815C90.489 49.9255 90.759 49.7275 90.951 49.4875C91.143 49.2355 91.281 48.9655 91.365 48.6775C91.449 48.3895 91.491 48.1195 91.491 47.8675C91.491 47.6035 91.443 47.3335 91.347 47.0575C91.263 46.7695 91.119 46.5055 90.915 46.2655C90.723 46.0255 90.465 45.8275 90.141 45.6715C89.829 45.5155 89.445 45.4375 88.989 45.4375H86.973V50.3155H88.863ZM91.005 51.3055L94.407 56.7775H92.391L88.935 51.3595L91.005 51.3055Z" fill="black"/>
<path d="M98.521 50.2795C98.521 49.3795 98.689 48.5335 99.025 47.7415C99.373 46.9375 99.853 46.2295 100.465 45.6175C101.077 44.9935 101.779 44.5075 102.571 44.1595C103.375 43.7995 104.239 43.6195 105.163 43.6195C106.075 43.6195 106.927 43.7995 107.719 44.1595C108.523 44.5075 109.231 44.9935 109.843 45.6175C110.467 46.2295 110.953 46.9375 111.301 47.7415C111.649 48.5335 111.823 49.3795 111.823 50.2795C111.823 51.2035 111.649 52.0675 111.301 52.8715C110.953 53.6755 110.467 54.3835 109.843 54.9955C109.231 55.5955 108.523 56.0695 107.719 56.4175C106.927 56.7535 106.075 56.9215 105.163 56.9215C104.239 56.9215 103.375 56.7535 102.571 56.4175C101.779 56.0815 101.077 55.6135 100.465 55.0135C99.853 54.4135 99.373 53.7115 99.025 52.9075C98.689 52.1035 98.521 51.2275 98.521 50.2795ZM100.321 50.2975C100.321 50.9815 100.447 51.6235 100.699 52.2235C100.951 52.8115 101.299 53.3335 101.743 53.7895C102.187 54.2455 102.703 54.6055 103.291 54.8695C103.879 55.1215 104.515 55.2475 105.199 55.2475C105.871 55.2475 106.501 55.1215 107.089 54.8695C107.677 54.6055 108.187 54.2455 108.619 53.7895C109.051 53.3335 109.393 52.8115 109.645 52.2235C109.897 51.6235 110.023 50.9755 110.023 50.2795C110.023 49.5955 109.897 48.9535 109.645 48.3535C109.393 47.7415 109.045 47.2075 108.601 46.7515C108.157 46.2955 107.641 45.9415 107.053 45.6895C106.465 45.4255 105.835 45.2935 105.163 45.2935C104.479 45.2935 103.843 45.4255 103.255 45.6895C102.667 45.9535 102.151 46.3135 101.707 46.7695C101.263 47.2255 100.921 47.7595 100.681 48.3715C100.441 48.9715 100.321 49.6135 100.321 50.2975Z" fill="black"/>
<path d="M120.759 43.7635C121.707 43.7635 122.517 43.9255 123.189 44.2495C123.861 44.5615 124.377 45.0175 124.737 45.6175C125.109 46.2175 125.295 46.9435 125.295 47.7955C125.295 48.3115 125.217 48.8215 125.061 49.3255C124.905 49.8175 124.653 50.2675 124.305 50.6755C123.969 51.0715 123.525 51.3895 122.973 51.6295C122.421 51.8695 121.749 51.9895 120.957 51.9895H119.031V56.7775H117.285V43.7635H120.759ZM120.939 50.3155C121.455 50.3155 121.881 50.2315 122.217 50.0635C122.553 49.8955 122.817 49.6855 123.009 49.4335C123.201 49.1695 123.339 48.8935 123.423 48.6055C123.507 48.3175 123.549 48.0595 123.549 47.8315C123.549 47.5675 123.507 47.2975 123.423 47.0215C123.339 46.7335 123.195 46.4755 122.991 46.2475C122.799 46.0075 122.541 45.8155 122.217 45.6715C121.905 45.5155 121.515 45.4375 121.047 45.4375H119.031V50.3155H120.939Z" fill="black"/>
<path d="M130.51 43.7635H138.97V45.4375H132.256V49.3975H138.25V51.0715H132.256V55.1035H139.222V56.7775H130.51V43.7635Z" fill="black"/>
<path d="M148.228 43.7635C148.888 43.7635 149.494 43.8535 150.046 44.0335C150.61 44.2015 151.096 44.4595 151.504 44.8075C151.924 45.1435 152.248 45.5635 152.476 46.0675C152.716 46.5595 152.836 47.1355 152.836 47.7955C152.836 48.3115 152.758 48.8155 152.602 49.3075C152.458 49.7995 152.212 50.2495 151.864 50.6575C151.516 51.0535 151.06 51.3775 150.496 51.6295C149.944 51.8695 149.26 51.9895 148.444 51.9895H146.518V56.7775H144.772V43.7635H148.228ZM148.408 50.3155C148.924 50.3155 149.35 50.2375 149.686 50.0815C150.034 49.9255 150.304 49.7275 150.496 49.4875C150.688 49.2355 150.826 48.9655 150.91 48.6775C150.994 48.3895 151.036 48.1195 151.036 47.8675C151.036 47.6035 150.988 47.3335 150.892 47.0575C150.808 46.7695 150.664 46.5055 150.46 46.2655C150.268 46.0255 150.01 45.8275 149.686 45.6715C149.374 45.5155 148.99 45.4375 148.534 45.4375H146.518V50.3155H148.408ZM150.55 51.3055L153.952 56.7775H151.936L148.48 51.3595L150.55 51.3055Z" fill="black"/>
<path d="M158.027 43.7635H166.667V45.4375H163.175V56.7775H161.429V45.4375H158.027V43.7635Z" fill="black"/>
<path d="M175.416 52.4395L170.592 43.7635H172.734L176.604 50.9455L176.064 50.9815L179.898 43.7635H182.022L177.162 52.4395V56.7775H175.416V52.4395Z" fill="black"/>
<path d="M198.615 43.7635C199.563 43.7635 200.373 43.9255 201.045 44.2495C201.717 44.5615 202.233 45.0175 202.593 45.6175C202.965 46.2175 203.151 46.9435 203.151 47.7955C203.151 48.3115 203.073 48.8215 202.917 49.3255C202.761 49.8175 202.509 50.2675 202.161 50.6755C201.825 51.0715 201.381 51.3895 200.829 51.6295C200.277 51.8695 199.605 51.9895 198.813 51.9895H196.887V56.7775H195.141V43.7635H198.615ZM198.795 50.3155C199.311 50.3155 199.737 50.2315 200.073 50.0635C200.409 49.8955 200.673 49.6855 200.865 49.4335C201.057 49.1695 201.195 48.8935 201.279 48.6055C201.363 48.3175 201.405 48.0595 201.405 47.8315C201.405 47.5675 201.363 47.2975 201.279 47.0215C201.195 46.7335 201.051 46.4755 200.847 46.2475C200.655 46.0075 200.397 45.8155 200.073 45.6715C199.761 45.5155 199.371 45.4375 198.903 45.4375H196.887V50.3155H198.795Z" fill="black"/>
<path d="M207.556 50.2795C207.556 49.3795 207.724 48.5335 208.06 47.7415C208.408 46.9375 208.888 46.2295 209.5 45.6175C210.112 44.9935 210.814 44.5075 211.606 44.1595C212.41 43.7995 213.274 43.6195 214.198 43.6195C215.11 43.6195 215.962 43.7995 216.754 44.1595C217.558 44.5075 218.266 44.9935 218.878 45.6175C219.502 46.2295 219.988 46.9375 220.336 47.7415C220.684 48.5335 220.858 49.3795 220.858 50.2795C220.858 51.2035 220.684 52.0675 220.336 52.8715C219.988 53.6755 219.502 54.3835 218.878 54.9955C218.266 55.5955 217.558 56.0695 216.754 56.4175C215.962 56.7535 215.11 56.9215 214.198 56.9215C213.274 56.9215 212.41 56.7535 211.606 56.4175C210.814 56.0815 210.112 55.6135 209.5 55.0135C208.888 54.4135 208.408 53.7115 208.06 52.9075C207.724 52.1035 207.556 51.2275 207.556 50.2795ZM209.356 50.2975C209.356 50.9815 209.482 51.6235 209.734 52.2235C209.986 52.8115 210.334 53.3335 210.778 53.7895C211.222 54.2455 211.738 54.6055 212.326 54.8695C212.914 55.1215 213.55 55.2475 214.234 55.2475C214.906 55.2475 215.536 55.1215 216.124 54.8695C216.712 54.6055 217.222 54.2455 217.654 53.7895C218.086 53.3335 218.428 52.8115 218.68 52.2235C218.932 51.6235 219.058 50.9755 219.058 50.2795C219.058 49.5955 218.932 48.9535 218.68 48.3535C218.428 47.7415 218.08 47.2075 217.636 46.7515C217.192 46.2955 216.676 45.9415 216.088 45.6895C215.5 45.4255 214.87 45.2935 214.198 45.2935C213.514 45.2935 212.878 45.4255 212.29 45.6895C211.702 45.9535 211.186 46.3135 210.742 46.7695C210.298 47.2255 209.956 47.7595 209.716 48.3715C209.476 48.9715 209.356 49.6135 209.356 50.2975Z" fill="black"/>
<path d="M229.776 43.7635C230.436 43.7635 231.042 43.8535 231.594 44.0335C232.158 44.2015 232.644 44.4595 233.052 44.8075C233.472 45.1435 233.796 45.5635 234.024 46.0675C234.264 46.5595 234.384 47.1355 234.384 47.7955C234.384 48.3115 234.306 48.8155 234.15 49.3075C234.006 49.7995 233.76 50.2495 233.412 50.6575C233.064 51.0535 232.608 51.3775 232.044 51.6295C231.492 51.8695 230.808 51.9895 229.992 51.9895H228.066V56.7775H226.32V43.7635H229.776ZM229.956 50.3155C230.472 50.3155 230.898 50.2375 231.234 50.0815C231.582 49.9255 231.852 49.7275 232.044 49.4875C232.236 49.2355 232.374 48.9655 232.458 48.6775C232.542 48.3895 232.584 48.1195 232.584 47.8675C232.584 47.6035 232.536 47.3335 232.44 47.0575C232.356 46.7695 232.212 46.5055 232.008 46.2655C231.816 46.0255 231.558 45.8275 231.234 45.6715C230.922 45.5155 230.538 45.4375 230.082 45.4375H228.066V50.3155H229.956ZM232.098 51.3055L235.5 56.7775H233.484L230.028 51.3595L232.098 51.3055Z" fill="black"/>
<path d="M239.575 43.7635H248.215V45.4375H244.723V56.7775H242.977V45.4375H239.575V43.7635Z" fill="black"/>
<path d="M251.193 56.7775L256.881 43.2235H256.989L262.659 56.7775H260.661L256.413 45.9595L257.655 45.1495L252.903 56.7775H251.193ZM254.523 51.8455H259.365L259.941 53.3575H254.019L254.523 51.8455Z" fill="black"/>
<path d="M267.63 43.7635H269.376V55.1035H275.982V56.7775H267.63V43.7635Z" fill="black"/>
</svg>
